<svg width="48" height="48" viewBox="0 0 48 48" fill="none" xmlns="http://www.w3.org/2000/svg">
<path d="M23.9999 0C37.2555 0 48 10.746 48 24.0001C48 37.2542 37.2555 48 23.9999 48C10.7443 48 0 37.254 0 24.0001C0 10.7462 10.7445 0 23.9999 0Z" fill="#0E76A8"/>
<path d="M13.5241 32.976H18.0181V17.9969H13.5241V32.976ZM31.0321 17.4781C28.8511 17.4781 26.8996 18.2746 25.5152 20.0326V17.9477H21.0047V32.9761H25.5152V24.8491C25.5152 23.1316 27.0887 21.4561 29.0597 21.4561C31.0306 21.4561 31.5167 23.1316 31.5167 24.8071V32.9747H36.0107V24.4726C36.0106 18.567 33.2146 17.4781 31.0321 17.4781ZM15.7501 16.5C16.9921 16.5 18.0001 15.492 18.0001 14.25C18.0001 13.0079 16.9921 12 15.7501 12C14.508 12 13.5 13.0081 13.5 14.2501C13.5 15.4921 14.508 16.5 15.7501 16.5Z" fill="white"/>
</svg>
